<?xml version="1.0" encoding="UTF-8" standalone="no"?>
<!DOCTYPE svg PUBLIC "-//W3C//DTD SVG 1.1//EN" "http://www.w3.org/Graphics/SVG/1.1/DTD/svg11.dtd">
<svg width="100%" height="100%" viewBox="0 0 50 14" version="1.1" xmlns="http://www.w3.org/2000/svg" xmlns:xlink="http://www.w3.org/1999/xlink" xml:space="preserve" xmlns:serif="http://www.serif.com/" style="fill-rule:evenodd;clip-rule:evenodd;stroke-linejoin:round;stroke-miterlimit:1.41421;">
    <g id="Artboard1" transform="matrix(1,0,0,0.56,0,0)">
        <rect x="0" y="0" width="50" height="25" style="fill:none;"/>
        <clipPath id="_clip1">
            <rect x="0" y="0" width="50" height="25"/>
        </clipPath>
        <g clip-path="url(#_clip1)">
            <g transform="matrix(2,0,0,3.57143,0,0)">
                <path d="M6.163,6.779C2.722,6.779 0.926,5.154 0,4.499C0,4.372 0,0.034 0,0C0.014,0 25.01,0.063 25,0C24.999,-0.009 25,5.306 25,5.901C23.325,4.513 21.474,3.815 19.436,3.815C19.131,3.815 18.822,3.831 18.509,3.862C16.103,4.051 13.448,5.168 10.532,6.034C8.84,6.57 7.396,6.779 6.163,6.779Z" style="fill:white;fill-rule:nonzero;"/>
            </g>
        </g>
    </g>
</svg>
