<?xml version="1.0" encoding="UTF-8" standalone="no"?>
<!DOCTYPE svg PUBLIC "-//W3C//DTD SVG 1.1//EN" "http://www.w3.org/Graphics/SVG/1.1/DTD/svg11.dtd">
<svg width="100%" height="100%" viewBox="0 0 159 174" version="1.1" xmlns="http://www.w3.org/2000/svg" xmlns:xlink="http://www.w3.org/1999/xlink" xml:space="preserve" xmlns:serif="http://www.serif.com/" style="fill-rule:evenodd;clip-rule:evenodd;stroke-linejoin:round;stroke-miterlimit:1.41421;">
    <g transform="matrix(1,0,0,1,-6.00038,-5)">
        <g transform="matrix(2.08333,-3.60844,3.60844,2.08333,-778.107,911.528)">
            <path d="M260.596,79.607C259.243,92.108 267.669,90.752 264.891,101.434C265.008,101.512 270.023,90.703 266.991,85.044C266.923,84.917 274.528,93.074 264.149,105.511C264.134,105.768 277.126,96.135 278.5,82.932C280.004,70.187 272.097,64.991 279.094,56.345C279.118,56.355 274.868,58.061 270.395,62.018C265.914,65.951 261.37,72.111 260.596,79.607Z" style="fill:rgb(182,140,191);fill-rule:nonzero;"/>
        </g>
        <g transform="matrix(-2.13419,-0.571854,-0.571854,2.13419,765.428,44.3503)">
            <path d="M260.596,79.607C259.243,92.108 267.669,90.752 264.891,101.434C265.008,101.512 270.023,90.703 266.991,85.044C266.923,84.917 274.528,93.074 264.149,105.511C264.134,105.768 277.126,96.135 278.5,82.932C280.004,70.187 272.097,64.991 279.094,56.345C279.118,56.355 274.868,58.061 270.395,62.018C265.914,65.951 261.37,72.111 260.596,79.607Z" style="fill:rgb(182,140,191);fill-rule:nonzero;"/>
        </g>
    </g>
</svg>
